<?xml version="1.0" standalone="no"?>
<!DOCTYPE svg PUBLIC "-//W3C//DTD SVG 20010904//EN"
 "http://www.w3.org/TR/2001/REC-SVG-20010904/DTD/svg10.dtd">
<svg version="1.0" xmlns="http://www.w3.org/2000/svg"
 width="40.000000pt" height="40.000000pt" viewBox="0 0 40.000000 40.000000"
 preserveAspectRatio="xMidYMid meet">

<g transform="translate(0.000000,40.000000) scale(0.100000,-0.100000)"
fill="#000000" stroke="none">
<path d="M143 369 c-75 -22 -133 -119 -118 -198 30 -161 241 -202 327 -63 31
51 31 133 0 184 -42 67 -132 101 -209 77z m112 -136 c-11 -45 -32 -70 -70 -83
-20 -7 -39 -9 -42 -6 -3 3 1 23 8 43 10 26 26 44 49 55 51 26 64 24 55 -9z"/>
</g>
</svg>
