<?xml version="1.0" standalone="no"?>
<!DOCTYPE svg PUBLIC "-//W3C//DTD SVG 20010904//EN"
 "http://www.w3.org/TR/2001/REC-SVG-20010904/DTD/svg10.dtd">
<svg version="1.0" xmlns="http://www.w3.org/2000/svg"
 width="30.000000pt" height="30.000000pt" viewBox="0 0 30.000000 30.000000"
 preserveAspectRatio="xMidYMid meet">

<g transform="translate(0.000000,30.000000) scale(0.100000,-0.100000)"
fill="#000000" stroke="none">
<path d="M21 244 c-39 -49 -24 -88 67 -178 l60 -59 62 59 c92 88 108 128 69
178 -24 31 -81 36 -111 9 -17 -15 -19 -15 -36 0 -30 27 -87 22 -111 -9z m98
-5 c29 -17 35 -18 50 -6 26 23 50 27 76 15 56 -25 45 -74 -35 -153 l-60 -59
-60 59 c-33 33 -63 68 -66 78 -9 29 4 63 28 75 31 14 28 15 67 -9z"/>
</g>
</svg>
