<?xml version="1.0" standalone="no"?>
<!DOCTYPE svg PUBLIC "-//W3C//DTD SVG 20010904//EN"
 "http://www.w3.org/TR/2001/REC-SVG-20010904/DTD/svg10.dtd">
<svg version="1.0" xmlns="http://www.w3.org/2000/svg"
 width="40.000000pt" height="40.000000pt" viewBox="0 0 40.000000 40.000000"
 preserveAspectRatio="xMidYMid meet">

<g transform="translate(0.000000,40.000000) scale(0.100000,-0.100000)"
fill="#000000" stroke="none">
<path d="M13 363 c-10 -3 -13 -45 -13 -158 0 -196 3 -199 100 -121 l70 57 0
-49 c0 -68 16 -71 87 -17 99 74 147 120 139 134 -4 7 -50 46 -101 86 -107 85
-125 88 -125 19 0 -24 -3 -44 -6 -44 -3 0 -34 23 -69 50 -35 28 -64 50 -66 49
-2 0 -10 -3 -16 -6z"/>
</g>
</svg>
