<?xml version="1.0" standalone="no"?>
<!DOCTYPE svg PUBLIC "-//W3C//DTD SVG 20010904//EN"
 "http://www.w3.org/TR/2001/REC-SVG-20010904/DTD/svg10.dtd">
<svg version="1.0" xmlns="http://www.w3.org/2000/svg"
 width="52.000000pt" height="52.000000pt" viewBox="0 0 52.000000 52.000000"
 preserveAspectRatio="xMidYMid meet">

<g transform="translate(0.000000,52.000000) scale(0.100000,-0.100000)"
fill="#000000" stroke="none">
<path d="M175 441 c-157 -72 -152 -299 7 -366 70 -29 161 -13 217 38 34 31 61
95 61 145 0 44 -29 126 -37 105 -2 -7 0 -21 6 -32 19 -35 13 -120 -11 -162
-12 -22 -24 -39 -28 -39 -3 0 -14 14 -23 30 -48 80 -182 77 -219 -5 -15 -34
-24 -32 -48 15 -45 89 -12 208 70 250 48 24 129 26 171 4 17 -8 36 -13 42 -11
23 9 -78 47 -123 47 -25 0 -63 -9 -85 -19z m164 -276 c17 -20 31 -40 31 -45 0
-35 -136 -53 -190 -25 -35 18 -35 18 -13 55 21 36 47 48 99 49 36 1 46 -4 73
-34z"/>
<path d="M216 359 c-50 -40 -21 -119 44 -119 65 0 94 79 44 119 -15 12 -34 21
-44 21 -10 0 -29 -9 -44 -21z m82 -11 c28 -28 1 -98 -36 -98 -25 0 -52 31 -52
60 0 33 17 50 50 50 14 0 31 -5 38 -12z"/>
</g>
</svg>
