<?xml version="1.0" standalone="no"?>
<!DOCTYPE svg PUBLIC "-//W3C//DTD SVG 20010904//EN"
 "http://www.w3.org/TR/2001/REC-SVG-20010904/DTD/svg10.dtd">
<svg version="1.0" xmlns="http://www.w3.org/2000/svg"
 width="40.000000pt" height="40.000000pt" viewBox="0 0 40.000000 40.000000"
 preserveAspectRatio="xMidYMid meet">

<g transform="translate(0.000000,40.000000) scale(0.100000,-0.100000)"
fill="#000000" stroke="none">
<path d="M60 200 l0 -140 140 0 140 0 0 140 0 140 -140 0 -140 0 0 -140z m185
68 c32 -14 34 -40 3 -36 -21 3 -23 -2 -26 -42 -4 -52 -16 -70 -46 -70 -30 0
-46 18 -46 53 0 23 6 31 30 40 23 9 30 17 30 39 0 31 14 35 55 16z"/>
<path d="M5 308 c-10 -25 -1 -223 10 -223 13 0 19 215 6 228 -7 7 -12 5 -16
-5z"/>
<path d="M375 308 c-10 -25 -1 -223 10 -223 13 0 19 215 6 228 -7 7 -12 5 -16
-5z"/>
</g>
</svg>
