<?xml version="1.0" standalone="no"?>
<!DOCTYPE svg PUBLIC "-//W3C//DTD SVG 20010904//EN"
 "http://www.w3.org/TR/2001/REC-SVG-20010904/DTD/svg10.dtd">
<svg version="1.0" xmlns="http://www.w3.org/2000/svg"
 width="30.000000pt" height="30.000000pt" viewBox="0 0 30.000000 30.000000"
 preserveAspectRatio="xMidYMid meet">

<g transform="translate(0.000000,30.000000) scale(0.100000,-0.100000)"
fill="#000000" stroke="none">
<path d="M76 277 c-123 -70 -87 -255 54 -274 50 -7 54 12 5 21 -75 14 -128 94
-106 158 33 93 145 125 205 59 15 -16 15 -19 1 -24 -8 -4 -15 -11 -15 -17 0
-14 53 -13 68 2 14 14 16 68 2 68 -5 0 -10 -7 -10 -17 0 -14 -2 -15 -17 -1
-59 51 -126 60 -187 25z"/>
<path d="M140 202 c0 -39 -5 -53 -25 -72 -13 -12 -22 -27 -19 -32 4 -5 19 3
35 18 25 24 29 35 29 81 0 29 -4 53 -10 53 -5 0 -10 -22 -10 -48z"/>
<path d="M275 119 c-4 -6 -5 -13 -2 -16 7 -7 27 6 27 18 0 12 -17 12 -25 -2z"/>
<path d="M246 65 c-3 -9 0 -15 9 -15 8 0 15 7 15 15 0 8 -4 15 -9 15 -5 0 -11
-7 -15 -15z"/>
<path d="M200 24 c0 -17 22 -14 28 4 2 7 -3 12 -12 12 -9 0 -16 -7 -16 -16z"/>
</g>
</svg>
