<?xml version="1.0" standalone="no"?>
<!DOCTYPE svg PUBLIC "-//W3C//DTD SVG 20010904//EN"
 "http://www.w3.org/TR/2001/REC-SVG-20010904/DTD/svg10.dtd">
<svg version="1.0" xmlns="http://www.w3.org/2000/svg"
 width="21.000000pt" height="21.000000pt" viewBox="0 0 21.000000 21.000000"
 preserveAspectRatio="xMidYMid meet">

<g transform="translate(0.000000,21.000000) scale(0.100000,-0.100000)"
fill="#000000" stroke="none">
<path d="M29 181 c-19 -19 -29 -40 -29 -59 0 -60 71 -108 120 -82 19 10 26 8
51 -16 37 -35 49 -25 14 12 -17 18 -23 33 -18 43 16 36 7 84 -21 108 -38 32
-80 30 -117 -6z m111 -11 c43 -43 11 -120 -50 -120 -59 0 -93 77 -53 122 22
24 77 24 103 -2z"/>
<path d="M36 144 c-8 -21 -8 -24 3 -24 5 0 11 9 14 20 6 24 -8 27 -17 4z"/>
</g>
</svg>
