<?xml version="1.0" standalone="no"?>
<!DOCTYPE svg PUBLIC "-//W3C//DTD SVG 20010904//EN"
 "http://www.w3.org/TR/2001/REC-SVG-20010904/DTD/svg10.dtd">
<svg version="1.0" xmlns="http://www.w3.org/2000/svg"
 width="30.000000pt" height="30.000000pt" viewBox="0 0 30.000000 30.000000"
 preserveAspectRatio="xMidYMid meet">

<g transform="translate(0.000000,30.000000) scale(0.100000,-0.100000)"
fill="#000000" stroke="none">
<path d="M50 289 c0 -9 -7 -22 -15 -29 -19 -16 -19 -49 0 -56 12 -5 15 -26 15
-106 0 -63 4 -97 10 -93 6 3 10 48 10 100 0 52 4 97 10 100 16 10 11 48 -10
75 -15 19 -20 21 -20 9z m20 -54 c0 -8 -7 -15 -15 -15 -8 0 -15 7 -15 15 0 8
7 15 15 15 8 0 15 -7 15 -15z"/>
<path d="M140 211 c0 -66 -4 -92 -15 -101 -19 -16 -19 -34 0 -50 8 -7 15 -23
15 -36 0 -13 5 -24 10 -24 6 0 10 11 10 24 0 13 7 29 15 36 8 7 15 18 15 25 0
7 -7 18 -15 25 -11 9 -15 35 -15 101 0 53 -4 89 -10 89 -6 0 -10 -36 -10 -89z
m28 -129 c2 -7 -6 -12 -17 -12 -21 0 -27 11 -14 24 9 9 26 2 31 -12z"/>
<path d="M238 294 c-5 -4 -8 -25 -8 -46 0 -21 -6 -47 -12 -58 -10 -16 -10 -24
0 -40 6 -11 12 -47 12 -79 0 -33 5 -63 10 -66 6 -4 10 18 10 58 0 45 5 68 15
77 19 16 19 44 1 60 -8 6 -16 32 -18 57 -2 25 -6 41 -10 37z m22 -130 c0 -8
-7 -14 -15 -14 -15 0 -21 21 -9 33 10 9 24 -2 24 -19z"/>
</g>
</svg>
