<?xml version="1.0" standalone="no"?>
<!DOCTYPE svg PUBLIC "-//W3C//DTD SVG 20010904//EN"
 "http://www.w3.org/TR/2001/REC-SVG-20010904/DTD/svg10.dtd">
<svg version="1.0" xmlns="http://www.w3.org/2000/svg"
 width="19.000000pt" height="19.000000pt" viewBox="0 0 19.000000 19.000000"
 preserveAspectRatio="xMidYMid meet">

<g transform="translate(0.000000,19.000000) scale(0.100000,-0.100000)"
fill="#000000" stroke="none">
<path d="M144 167 c-3 -9 -14 -17 -23 -17 -9 0 -31 -20 -49 -45 -20 -28 -39
-45 -52 -45 -11 0 -20 -4 -20 -10 0 -5 13 -10 30 -10 23 0 35 9 60 45 17 25
38 45 46 45 8 0 12 -4 9 -10 -10 -16 21 -11 35 6 11 13 10 19 -8 36 -19 20
-22 20 -28 5z"/>
<path d="M0 141 c0 -9 60 -24 68 -17 2 3 1 9 -3 15 -7 13 -65 15 -65 2z"/>
<path d="M146 69 c4 -8 -3 -9 -26 -4 -25 5 -31 4 -28 -6 3 -8 13 -16 24 -18
10 -2 23 -10 29 -18 9 -12 13 -11 29 6 15 17 16 23 6 36 -14 17 -45 21 -34 4z"/>
</g>
</svg>
