<?xml version="1.0" standalone="no"?>
<!DOCTYPE svg PUBLIC "-//W3C//DTD SVG 20010904//EN"
 "http://www.w3.org/TR/2001/REC-SVG-20010904/DTD/svg10.dtd">
<svg version="1.0" xmlns="http://www.w3.org/2000/svg"
 width="30.000000pt" height="30.000000pt" viewBox="0 0 30.000000 30.000000"
 preserveAspectRatio="xMidYMid meet">

<g transform="translate(0.000000,30.000000) scale(0.100000,-0.100000)"
fill="#000000" stroke="none">
<path d="M121 253 c-25 -21 -59 -39 -80 -42 l-36 -6 0 -55 c0 -54 1 -55 30
-58 17 -2 53 -21 81 -43 28 -21 54 -39 57 -39 4 0 7 63 7 140 0 77 -3 140 -7
140 -5 0 -28 -17 -52 -37z"/>
<path d="M260 213 c25 -48 25 -78 0 -126 -11 -20 -15 -37 -10 -37 18 0 50 64
50 100 0 36 -32 100 -50 100 -5 0 -1 -17 10 -37z"/>
<path d="M224 198 c9 -12 16 -34 16 -48 0 -14 -7 -36 -16 -48 -12 -18 -13 -22
-1 -22 15 0 37 41 37 70 0 29 -22 70 -37 70 -12 0 -11 -4 1 -22z"/>
</g>
</svg>
